<svg viewBox = "0 0 88 88" width="88" height="88" xmlns="http://www.w3.org/2000/svg"><g transform="matrix(1 0 0 1 44 44)"  ><g style=""   ><g transform="matrix(1 0 0 1 -11.23 -0.99)"  ><path style="stroke: none; stroke-width: 1; stroke-dasharray: none; stroke-linecap: butt; stroke-dashoffset: 0; stroke-linejoin: miter; stroke-miterlimit: 4; fill: rgb(235,185,35); fill-rule: nonzero; opacity: 1;"  transform=" translate(-32.77, -43.01)" d="M 30.0721 69.8597 C 36.826 73.2916 45.1848 70.8459 48.9903 64.1818 C 50.0618 62.3055 50.6894 60.2182 50.8469 58.0814 C 46.2248 60.3363 40.7217 60.1811 36.2298 57.6005 C 28.7526 53.3048 26.1547 43.7116 30.4374 36.2118 C 31.7428 33.9258 33.6055 32.0115 35.8273 30.649 C 35.8749 28.0374 36.5787 25.4574 37.8841 23.1714 C 40.5896 18.4335 45.4095 15.6528 50.4754 15.3288 C 38.249 12.5607 25.1167 17.9241 18.5677 29.3925 C 10.5332 43.4623 15.4062 61.456 29.428 69.5117 C 29.6432 69.6354 29.8592 69.7448 30.0776 69.8629 L 30.0721 69.8597 Z" stroke-linecap="round" /></g><g transform="matrix(1 0 0 1 11.23 0.99)"  ><path style="stroke: none; stroke-width: 1; stroke-dasharray: none; stroke-linecap: butt; stroke-dashoffset: 0; stroke-linejoin: miter; stroke-miterlimit: 4; fill: rgb(36,102,235); fill-rule: nonzero; opacity: 1;"  transform=" translate(-55.23, -44.99)" d="M 39.0074 23.8095 C 37.9359 25.6859 37.3083 27.7731 37.1507 29.9099 C 41.7729 27.655 47.2705 27.807 51.7623 30.3876 C 59.2395 34.6834 61.8398 44.2852 57.5571 51.7851 C 56.2549 54.0655 54.3922 55.9798 52.1704 57.3423 C 52.1228 59.9539 51.419 62.5339 50.1136 64.8199 C 47.4049 69.5633 42.585 72.3441 37.5191 72.6681 C 49.7479 75.4449 62.8833 70.0759 69.4323 58.6075 C 77.4636 44.5432 72.5883 26.5408 58.5665 18.4851 C 58.3513 18.3615 58.1353 18.2521 57.9169 18.134 C 51.163 14.7021 42.8097 17.151 39.0074 23.8095 Z" stroke-linecap="round" /></g></g></g></svg>